<?xml version="1.0" standalone="no"?><!DOCTYPE svg PUBLIC "-//W3C//DTD SVG 1.1//EN"
  "http://www.w3.org/Graphics/SVG/1.1/DTD/svg11.dtd">
<svg t="1606116639537" class="icon" viewBox="0 0 1024 1024" version="1.1"
  xmlns="http://www.w3.org/2000/svg" p-id="9377"
  xmlns:xlink="http://www.w3.org/1999/xlink" width="32" height="32">
  <defs>
    <style type="text/css"></style>
  </defs>
  <path d="M895.872 131.648c-53.568-55.232-228.608-66.88-366.144-66.88L523.648 64.768C519.168 64.64 500.096 64 472.512 64c-103.744 0-241.664 7.872-309.12 45.248C64.512 163.968 61.376 406.272 64.768 509.568c-3.392 104.96-0.256 350.464 98.624 405.248C230.784 952.128 368.64 960 472.384 960c27.584 0 46.72-0.64 51.264-0.768l6.144 0c137.472 0 312.512-11.648 366.08-66.88 60.352-62.272 64.96-286.464 64.064-380.352C960.832 418.048 956.224 193.92 895.872 131.648zM862.528 860.608c-6.016 6.208-14.976 11.712-26.048 16.512L836.48 568.704c0-17.152-13.824-30.912-30.848-30.912l-61.76 0c-17.088 0-30.912 13.824-30.912 30.912l0 335.168c-17.216 1.92-34.496 3.52-51.456 4.736l0-154.624c0-17.152-13.824-30.848-30.848-30.848L568.768 723.136c-17.088 0-30.912 13.76-30.912 30.848l0 159.296c-3.008 0.064-5.952 0.064-8.064 0.064-4.416 0-6.848 0-6.848 0s-14.336 0.448-36.48 0.64l0-237.184c0-17.152-13.824-30.912-30.912-30.912L393.728 645.888c-17.088 0-30.848 13.824-30.848 30.912l0 233.792c-17.152-1.152-34.432-2.816-51.52-4.8L311.36 522.304c0-17.024-13.824-30.784-30.784-30.784L218.688 491.52c-17.088 0-30.848 13.824-30.848 30.784l0 353.216c-0.512-0.256-1.28-0.448-1.792-0.768-85.312-47.296-75.2-355.2-74.88-365.184C110.976 504.384 108.16 415.04 118.528 325.888 138.88 318.72 227.072 293.376 348.672 343.04c76.48 31.168 170.112 96.768 203.52 187.264l26.816 72.896L596.48 527.552c25.088-108.608 77.76-152.512 116.416-170.432l0 55.296c0 5.952 2.048 10.88 6.336 15.04 4.224 4.288 9.344 6.464 15.04 6.4 5.632-0.064 10.752-2.048 14.976-6.4l81.088-81.024c4.224-4.288 6.336-9.344 6.4-15.04-0.064-5.824-2.112-10.816-6.4-14.976l-81.152-81.152c-4.16-4.224-9.344-6.4-14.912-6.4-5.824 0-10.816 2.112-15.04 6.336-4.224 4.288-6.336 9.28-6.4 15.04l0 56.96c-43.072 14.4-106.176 52.416-144.384 152.832-49.088-76.288-132.224-131.456-202.304-160C254.528 254.592 168.512 265.088 125.952 275.584c10.88-58.24 29.12-109.184 60.032-126.272C248.32 114.752 394.88 109.952 472.512 109.952c30.528 0 50.368 0.704 50.368 0.704s2.432 0 6.784 0c43.904 0 283.904 2.368 332.8 52.736 53.888 55.68 51.2 348.608 51.2 348.608S916.352 804.928 862.528 860.608z" fill="currentColor" />
</svg>
