<?xml version="1.0" standalone="no"?><!DOCTYPE svg PUBLIC "-//W3C//DTD SVG 1.1//EN"
  "http://www.w3.org/Graphics/SVG/1.1/DTD/svg11.dtd">
<svg t="1606116639537" class="icon" viewBox="0 0 1024 1024" version="1.1"
  xmlns="http://www.w3.org/2000/svg" p-id="9377"
  xmlns:xlink="http://www.w3.org/1999/xlink" width="32" height="32">
  <defs>
    <style type="text/css"></style>
  </defs>
  <path d="M762.858667 631.424A299.946667 299.946667 0 0 1 640 739.242667v30.933333c48.661333 9.941333 85.333333 52.970667 85.333333 104.490667v64a42.666667 42.666667 0 0 1-42.666666 42.666666H341.333333a42.666667 42.666667 0 0 1-42.666666-42.666666v-64a106.581333 106.581333 0 0 1 85.333333-104.512v-30.869334a299.626667 299.626667 0 0 1-122.965333-107.946666C129.770667 548.138667 42.666667 401.578667 42.666667 234.666667c0-58.901333 47.786667-106.666667 106.816-106.666667H215.466667a106.602667 106.602667 0 0 1 104.341333-85.333333H704.213333a106.624 106.624 0 0 1 104.32 85.333333h66.005334A106.752 106.752 0 0 1 981.333333 234.816c0 166.869333-87.168 313.429333-218.474666 396.608zM213.333333 213.333333H149.482667C137.578667 213.333333 128 222.912 128 234.666667c0 91.52 32 175.530667 85.418667 241.493333a305.621333 305.621333 0 0 1-0.085334-6.997333V213.333333z m597.333334 0v255.829334c0 2.346667-0.021333 4.693333-0.085334 7.04A382.186667 382.186667 0 0 0 896 234.816c0-11.904-9.578667-21.482667-21.482667-21.482667H810.666667zM469.333333 764.970667V810.666667a42.666667 42.666667 0 0 1-42.666666 42.666666h-21.12A21.290667 21.290667 0 0 0 384 874.666667v21.333333h256v-21.333333c0-11.712-9.642667-21.333333-21.546667-21.333334H597.333333a42.666667 42.666667 0 0 1-42.666666-42.666666v-45.696a301.12 301.12 0 0 1-85.333334 0zM298.666667 149.333333v319.829334C298.666667 587.264 394.090667 682.666667 512 682.666667c117.824 0 213.333333-95.573333 213.333333-213.504V149.333333c0-11.754667-9.536-21.333333-21.141333-21.333333H319.786667A21.269333 21.269333 0 0 0 298.666667 149.333333z m213.333333 306.944l-62.506667 31.552c-13.866667 6.997333-22.933333 0.618667-20.309333-14.165333l11.946667-66.816-50.56-47.296c-11.221333-10.496-7.701333-20.757333 7.765333-22.933333l69.866667-9.728 31.253333-60.8c6.933333-13.482667 18.176-13.44 25.088 0l31.253333 60.8 69.888 9.728c15.488 2.176 18.944 12.458667 7.744 22.933333l-50.56 47.296 11.946667 66.816c2.645333 14.826667-6.485333 21.141333-20.309333 14.165333L512 456.277333z" fill="currentColor" />
</svg>
