<?xml version="1.0" standalone="no"?><!DOCTYPE svg PUBLIC "-//W3C//DTD SVG 1.1//EN" "http://www.w3.org/Graphics/SVG/1.1/DTD/svg11.dtd"><svg t="1606124434634" class="icon" viewBox="0 0 1024 1024" version="1.1" xmlns="http://www.w3.org/2000/svg" p-id="2876" xmlns:xlink="http://www.w3.org/1999/xlink" width="32" height="32"><defs><style type="text/css"></style></defs><path d="M570.88 238.506667C790.442667 267.306667 960 455.189333 960 682.666667v64h42.666667a21.333333 21.333333 0 0 1 21.333333 21.333333 106.666667 106.666667 0 0 1-106.666667 106.666667H106.666667a106.666667 106.666667 0 0 1-106.666667-106.666667 21.333333 21.333333 0 0 1 21.333333-21.333333h42.666667v-64c0-227.477333 169.536-415.36 389.12-444.16a64 64 0 1 1 117.717333 0zM977.706667 789.333333H46.293333A64.021333 64.021333 0 0 0 106.666667 832h810.666666a64.021333 64.021333 0 0 0 60.373334-42.666667zM917.333333 682.666667c0-223.850667-181.482667-405.333333-405.333333-405.333334S106.666667 458.816 106.666667 682.666667v64h810.666666v-64z m-704 0a21.333333 21.333333 0 0 1-42.666666 0c0-188.522667 152.810667-341.333333 341.333333-341.333334a21.333333 21.333333 0 0 1 0 42.666667c-164.949333 0-298.666667 133.717333-298.666667 298.666667z m298.666667-448a21.333333 21.333333 0 1 0 0-42.666667 21.333333 21.333333 0 0 0 0 42.666667z" fill="#8a8a8a" p-id="2877"></path></svg>