<?xml version="1.0" standalone="no"?><!DOCTYPE svg PUBLIC "-//W3C//DTD SVG 1.1//EN"
  "http://www.w3.org/Graphics/SVG/1.1/DTD/svg11.dtd">
<svg t="1606116639537" class="icon" viewBox="0 0 1024 1024" version="1.1" xmlns="http://www.w3.org/2000/svg" p-id="9377"
     xmlns:xlink="http://www.w3.org/1999/xlink" width="32" height="32">
  <defs>
    <style type="text/css"></style>
  </defs>
  <path
    d="M507.465143 676.571429l66.267429-66.267429-86.820571-86.820571-66.267429 66.267429 0 32.036571 54.857143 0 0 54.857143 32.036571 0zM758.857143 265.142857q-9.142857-9.142857-18.870857 0.585143l-199.972571 199.972571q-9.728 9.728-0.585143 18.870857t18.870857-0.585143l199.972571-199.972571q9.728-9.728 0.585143-18.870857zM804.571429 604.598857l0 108.544q0 68.022857-48.274286 116.297143t-116.297143 48.274286l-475.428571 0q-68.022857 0-116.297143-48.274286t-48.274286-116.297143l0-475.428571q0-68.022857 48.274286-116.297143t116.297143-48.274286l475.428571 0q35.986286 0 66.852571 14.262857 8.557714 4.022857 10.313143 13.165714 1.682286 9.728-5.12 16.603429l-28.013714 28.013714q-7.972571 7.972571-18.285714 4.534857-13.165714-3.437714-25.746286-3.437714l-475.428571 0q-37.741714 0-64.585143 26.843429t-26.843429 64.585143l0 475.428571q0 37.741714 26.843429 64.585143t64.585143 26.843429l475.428571 0q37.741714 0 64.585143-26.843429t26.843429-64.585143l0-71.972571q0-7.460571 5.12-12.580571l36.571429-36.571429q8.557714-8.557714 19.968-4.022857t11.410286 16.603429zM749.714286 182.857143l164.571429 164.571429-384 384-164.571429 0 0-164.571429zM1003.446857 258.267429l-52.589714 52.589714-164.571429-164.571429 52.589714-52.589714q16.018286-16.018286 38.838857-16.018286t38.838857 16.018286l86.820571 86.820571q16.018286 16.018286 16.018286 38.838857t-16.018286 38.838857z"
    p-id="9378" fill="currentColor"></path>
</svg>
