<svg class="w-8 h-8 text-blue-700" viewBox="0 0 1024 1024" version="1.1"
  xmlns="http://www.w3.org/2000/svg">
  <path d="M104.1 737.7c-69.3-123-41-306.5 32.2-420.6 10.2-16.4 31.7-21 47.3-10 7.3 5.4 12.2 13.1 14.1 21.2h0.5c1.5 7.2 2.9 12.8 4.1 18.5 7.6-25.9 17.8-51.3 30.5-75.3 39.5-72.3 102.9-132.3 170.6-159.9 18-7.2 37.6 2.1 44.1 20.5 3.6 9.5 2.7 19.5-0.5 27.7-6.6 16.4-12.4 32.3-17.5 48.2 50.5-48.2 114.3-90.2 179.6-116.1C744.7 38.3 898.7 54.2 957 216.2c6.8 18.7-2.2 39.5-19.8 46.6l-3.7 1c-114.8 31.8-157.9 110.7-198.4 185.3-56.3 104.1-109 201.2-297.1 198.1 12.7 5.9 29.2 12.5 50.2 19.5 18.3 5.9 28.3 26.1 22.9 45.1-2.9 9.5-9.5 16.9-17.3 21.5-86.6 51.3-238.2 87.7-335.7 47.4-13.9 20.5-34.6 65.3-20.2 135.3h94.8c11.5 0 20.5 9.5 20.5 21.8 0 11.8-9 21.5-20.5 21.5H108c-17.1 1.8-33.4-10.2-37.1-28.5-19-93.9 10.7-159.8 33.2-193.1z m251.3 221.7h357.1c11.5 0 21-9.7 21-21.5 0-12.3-9.5-21.8-21-21.8H355.4c-11.5 0-20.7 9.5-20.7 21.8 0 11.7 9.2 21.5 20.7 21.5zM162.1 699.5c44.4 50.7 175.5 16.9 229.2 0.5-29.2-19.5-45.4-39.7-53.9-56.9-12.2-25.6-19-80.5 29.2-73.8 208.9 28.7 257.2-60 308.9-155.8 43.4-78.9 88-161.7 201.8-206.6C768.6 19.5 455.6 231 401 360.2c-4.4 14.3-17.5 24.6-32.7 24.6-18.8 0-34.1-16.2-34.1-35.9 0 0 2.2-52.3 18-120-22.9 22-43.9 48.7-59.5 78.2-28.8 52-41.5 112.2-27.3 166.1 3.9 14.6-1.5 31-14.2 39.7-15.6 10.8-37 6.2-47.3-10.2-15.1-24.6-32.2-48.2-45.4-73.8-29 82.2-39.8 191.7 3.6 270.6z" fill="currentColor" />
</svg>
