<?xml version="1.0" encoding="UTF-8"?>
<svg version="1.1" xmlns="http://www.w3.org/2000/svg" xmlns:xlink="http://www.w3.org/1999/xlink">
<defs>
<style/>
<style/>
<style/>
<style/>
<style/>
</defs>
<symbol id="i-back" viewBox="0 0 1024 1024" xmlns="http://www.w3.org/2000/svg" stroke="currentColor"><path d="M268.896 476.032L622.24 125.92c18.848-18.656 49.216-18.528 67.872.32 18.656 18.816 18.528 49.216-.32 67.872L370.336 510.688l318.176 321.056c18.656 18.816 18.528 49.216-.32 67.872-9.344 9.28-21.568 13.92-33.792 13.92-12.352 0-24.704-4.736-34.08-14.208L270.208 545.984c-.512-.512-.672-1.248-1.184-1.792-.128-.128-.288-.16-.416-.288-18.656-18.816-18.528-49.216.288-67.872z" fill="curentColor"/></symbol>
<symbol id="i-chart" class="icon" viewBox="0 0 1024 1024" xmlns="http://www.w3.org/2000/svg"><path d="M895.872 131.648c-53.568-55.232-228.608-66.88-366.144-66.88h-6.08c-4.48-.128-23.552-.768-51.136-.768-103.744 0-241.664 7.872-309.12 45.248-98.88 54.72-102.016 297.024-98.624 400.32-3.392 104.96-.256 350.464 98.624 405.248C230.784 952.128 368.64 960 472.384 960c27.584 0 46.72-.64 51.264-.768h6.144c137.472 0 312.512-11.648 366.08-66.88 60.352-62.272 64.96-286.464 64.064-380.352.896-93.952-3.712-318.08-64.064-380.352zm-33.344 728.96c-6.016 6.208-14.976 11.712-26.048 16.512V568.704c0-17.152-13.824-30.912-30.848-30.912h-61.76c-17.088 0-30.912 13.824-30.912 30.912v335.168a1313.682 1313.682 0 01-51.456 4.736V753.984c0-17.152-13.824-30.848-30.848-30.848h-61.888c-17.088 0-30.912 13.76-30.912 30.848V913.28c-3.008.064-5.952.064-8.064.064h-6.848s-14.336.448-36.48.64V676.8c0-17.152-13.824-30.912-30.912-30.912h-61.824c-17.088 0-30.848 13.824-30.848 30.912v233.792c-17.152-1.152-34.432-2.816-51.52-4.8V522.304c0-17.024-13.824-30.784-30.784-30.784h-61.888c-17.088 0-30.848 13.824-30.848 30.784V875.52c-.512-.256-1.28-.448-1.792-.768-85.312-47.296-75.2-355.2-74.88-365.184-.192-5.184-3.008-94.528 7.36-183.68 20.352-7.168 108.544-32.512 230.144 17.152 76.48 31.168 170.112 96.768 203.52 187.264l26.816 72.896 17.472-75.648c25.088-108.608 77.76-152.512 116.416-170.432v55.296c0 5.952 2.048 10.88 6.336 15.04 4.224 4.288 9.344 6.464 15.04 6.4 5.632-.064 10.752-2.048 14.976-6.4l81.088-81.024c4.224-4.288 6.336-9.344 6.4-15.04-.064-5.824-2.112-10.816-6.4-14.976l-81.152-81.152c-4.16-4.224-9.344-6.4-14.912-6.4-5.824 0-10.816 2.112-15.04 6.336-4.224 4.288-6.336 9.28-6.4 15.04v56.96c-43.072 14.4-106.176 52.416-144.384 152.832-49.088-76.288-132.224-131.456-202.304-160-111.616-45.44-197.632-34.944-240.192-24.448 10.88-58.24 29.12-109.184 60.032-126.272 62.336-34.56 208.896-39.36 286.528-39.36 30.528 0 50.368.704 50.368.704h6.784c43.904 0 283.904 2.368 332.8 52.736 53.888 55.68 51.2 348.608 51.2 348.608s2.688 292.928-51.136 348.608z" fill="currentColor"/></symbol>
<symbol id="i-clock" class="w-8 h-8 text-blue-600" xmlns="http://www.w3.org/2000/svg" fill="none" viewBox="0 0 24 24" stroke="currentColor"><path stroke-linecap="round" stroke-linejoin="round" stroke-width="2" d="M12 8v4l3 3m6-3a9 9 0 11-18 0 9 9 0 0118 0z"/></symbol>
<symbol id="i-cup" class="icon" viewBox="0 0 1024 1024" xmlns="http://www.w3.org/2000/svg"><path d="M762.859 631.424A299.947 299.947 0 01640 739.243v30.933c48.661 9.941 85.333 52.97 85.333 104.49v64a42.667 42.667 0 01-42.666 42.667H341.333a42.667 42.667 0 01-42.666-42.666v-64A106.581 106.581 0 01384 770.155v-30.87A299.627 299.627 0 01261.035 631.34c-131.264-83.2-218.368-229.76-218.368-396.672C42.667 175.765 90.453 128 149.483 128h65.984a106.603 106.603 0 01104.341-85.333h384.405A106.624 106.624 0 01808.533 128h66.006a106.752 106.752 0 01106.794 106.816c0 166.87-87.168 313.43-218.474 396.608zm-549.526-418.09h-63.85c-11.904 0-21.483 9.578-21.483 21.333 0 91.52 32 175.53 85.419 241.493a305.621 305.621 0 01-.086-6.997v-255.83zm597.334 0v255.829c0 2.346-.022 4.693-.086 7.04A382.187 382.187 0 00896 234.816a21.432 21.432 0 00-21.483-21.483h-63.85zM469.333 764.97v45.696a42.667 42.667 0 01-42.666 42.666h-21.12A21.29 21.29 0 00384 874.667V896h256v-21.333c0-11.712-9.643-21.334-21.547-21.334h-21.12a42.667 42.667 0 01-42.666-42.666V764.97a301.12 301.12 0 01-85.334 0zM298.667 149.333v319.83c0 118.101 95.424 213.504 213.333 213.504 117.824 0 213.333-95.574 213.333-213.504v-319.83c0-11.754-9.536-21.333-21.141-21.333H319.787a21.27 21.27 0 00-21.12 21.333zM512 456.277l-62.507 31.552c-13.866 6.998-22.933.619-20.309-14.165l11.947-66.816-50.56-47.296c-11.222-10.496-7.702-20.757 7.765-22.933l69.867-9.728 31.253-60.8c6.933-13.483 18.176-13.44 25.088 0l31.253 60.8 69.888 9.728c15.488 2.176 18.944 12.458 7.744 22.933l-50.56 47.296 11.947 66.816c2.645 14.827-6.485 21.141-20.31 14.165L512 456.277z" fill="currentColor"/></symbol>
<symbol id="i-dish" class="icon" viewBox="0 0 1024 1024" xmlns="http://www.w3.org/2000/svg"><path d="M570.88 238.507C790.443 267.307 960 455.189 960 682.667v64h42.667A21.333 21.333 0 011024 768a106.667 106.667 0 01-106.667 106.667H106.667A106.667 106.667 0 010 768a21.333 21.333 0 0121.333-21.333H64v-64c0-227.478 169.536-415.36 389.12-444.16a64 64 0 11117.717 0zm406.827 550.826H46.293A64.021 64.021 0 00106.667 832h810.666a64.021 64.021 0 0060.374-42.667zm-60.374-106.666c0-223.851-181.482-405.334-405.333-405.334S106.667 458.816 106.667 682.667v64h810.666v-64zm-704 0a21.333 21.333 0 01-42.666 0c0-188.523 152.81-341.334 341.333-341.334A21.333 21.333 0 01512 384c-164.95 0-298.667 133.717-298.667 298.667zm298.667-448A21.333 21.333 0 10512 192a21.333 21.333 0 000 42.667z" fill="#8a8a8a"/></symbol>
<symbol id="i-edit" class="icon" viewBox="0 0 1024 1024" xmlns="http://www.w3.org/2000/svg"><path d="M507.465 676.571l66.268-66.267-86.821-86.82-66.267 66.267v32.036h54.857v54.858h32.036zm251.392-411.428q-9.143-9.143-18.87.585L540.013 465.701q-9.728 9.728-.585 18.87t18.87-.585l199.973-199.972q9.728-9.728.585-18.871zm45.714 339.456v108.544q0 68.023-48.274 116.297T640 877.714H164.571q-68.022 0-116.297-48.274T0 713.143V237.714q0-68.023 48.274-116.297t116.297-48.274H640q35.986 0 66.853 14.263 8.557 4.023 10.313 13.165 1.682 9.728-5.12 16.604l-28.014 28.014q-7.973 7.972-18.286 4.534-13.165-3.437-25.746-3.437H164.571q-37.741 0-64.585 26.843t-26.843 64.585v475.429q0 37.742 26.843 64.585t64.585 26.843H640q37.742 0 64.585-26.843t26.844-64.585V641.17q0-7.46 5.12-12.58l36.571-36.572q8.558-8.557 19.968-4.023t11.41 16.604zm-54.857-421.742L914.286 347.43l-384 384H365.714V566.857zm253.733 75.41l-52.59 52.59-164.571-164.571 52.59-52.59q16.018-16.018 38.838-16.018t38.84 16.018l86.82 86.82q16.018 16.019 16.018 38.84t-16.018 38.838z" fill="currentColor"/></symbol>
<symbol id="i-ink-pen" class="w-8 h-8 text-blue-700" viewBox="0 0 1024 1024" xmlns="http://www.w3.org/2000/svg"><path d="M104.1 737.7c-69.3-123-41-306.5 32.2-420.6 10.2-16.4 31.7-21 47.3-10 7.3 5.4 12.2 13.1 14.1 21.2h.5c1.5 7.2 2.9 12.8 4.1 18.5 7.6-25.9 17.8-51.3 30.5-75.3 39.5-72.3 102.9-132.3 170.6-159.9 18-7.2 37.6 2.1 44.1 20.5 3.6 9.5 2.7 19.5-.5 27.7-6.6 16.4-12.4 32.3-17.5 48.2 50.5-48.2 114.3-90.2 179.6-116.1C744.7 38.3 898.7 54.2 957 216.2c6.8 18.7-2.2 39.5-19.8 46.6l-3.7 1c-114.8 31.8-157.9 110.7-198.4 185.3-56.3 104.1-109 201.2-297.1 198.1 12.7 5.9 29.2 12.5 50.2 19.5 18.3 5.9 28.3 26.1 22.9 45.1-2.9 9.5-9.5 16.9-17.3 21.5-86.6 51.3-238.2 87.7-335.7 47.4-13.9 20.5-34.6 65.3-20.2 135.3h94.8c11.5 0 20.5 9.5 20.5 21.8 0 11.8-9 21.5-20.5 21.5H108c-17.1 1.8-33.4-10.2-37.1-28.5-19-93.9 10.7-159.8 33.2-193.1zm251.3 221.7h357.1c11.5 0 21-9.7 21-21.5 0-12.3-9.5-21.8-21-21.8H355.4c-11.5 0-20.7 9.5-20.7 21.8 0 11.7 9.2 21.5 20.7 21.5zM162.1 699.5c44.4 50.7 175.5 16.9 229.2.5-29.2-19.5-45.4-39.7-53.9-56.9-12.2-25.6-19-80.5 29.2-73.8 208.9 28.7 257.2-60 308.9-155.8 43.4-78.9 88-161.7 201.8-206.6C768.6 19.5 455.6 231 401 360.2c-4.4 14.3-17.5 24.6-32.7 24.6-18.8 0-34.1-16.2-34.1-35.9 0 0 2.2-52.3 18-120-22.9 22-43.9 48.7-59.5 78.2-28.8 52-41.5 112.2-27.3 166.1 3.9 14.6-1.5 31-14.2 39.7-15.6 10.8-37 6.2-47.3-10.2-15.1-24.6-32.2-48.2-45.4-73.8-29 82.2-39.8 191.7 3.6 270.6z" fill="currentColor"/></symbol>
<symbol id="i-pie-chart" class="w-8 h-8 text-gray-500" xmlns="http://www.w3.org/2000/svg" fill="none" viewBox="0 0 24 24" stroke="currentColor"><path stroke-linecap="round" stroke-linejoin="round" stroke-width="2" d="M11 3.055A9.001 9.001 0 1020.945 13H11V3.055z"/><path stroke-linecap="round" stroke-linejoin="round" stroke-width="2" d="M20.488 9H15V3.512A9.025 9.025 0 0120.488 9z"/></symbol>
<symbol id="i-trash" xmlns="http://www.w3.org/2000/svg" fill="none" viewBox="0 0 24 24" stroke="currentColor"><path stroke-linecap="round" stroke-linejoin="round" stroke-width="2" d="M19 7l-.867 12.142A2 2 0 0116.138 21H7.862a2 2 0 01-1.995-1.858L5 7m5 4v6m4-6v6m1-10V4a1 1 0 00-1-1h-4a1 1 0 00-1 1v3M4 7h16"/></symbol>
</svg>