<?xml version="1.0" encoding="UTF-8"?>
<svg version="1.1" xmlns="http://www.w3.org/2000/svg" xmlns:xlink="http://www.w3.org/1999/xlink">
<defs>

</defs>
<symbol id="i-github" class="icon" viewBox="0 0 1024 1024" xmlns="http://www.w3.org/2000/svg"><path fill="currentColor" d="M855.557 216.855c35.621-66.153-5.089-152.661-5.089-152.661-91.597 0-157.75 61.064-157.75 61.064-35.621-20.355-152.661-20.355-152.661-20.355s-117.04 0-152.661 20.355c0 0-66.153-61.064-157.75-61.064 0 0-40.71 86.508-5.089 152.661 0 0-81.419 76.331-50.887 239.169 28.691 153.018 162.838 193.371 249.346 193.371 0 0-35.621 30.532-30.532 81.419 0 0-50.887 30.532-101.774 10.177s-76.331-71.242-76.331-71.242-50.887-66.153-101.774-40.71c0 0-15.266 15.266 40.71 40.71 0 0 40.71 61.064 55.976 96.685 15.266 35.621 96.685 66.153 178.105 45.798v117.04s0 10.177-20.355 15.266-20.355 15.266-10.177 15.266H723.25c10.177 0 10.177-10.177-10.177-15.266-20.355-5.089-20.355-15.266-20.355-15.266v-117.04s.447-61.03 0-81.419c-1.119-51.128-35.621-81.419-35.621-81.419 86.508 0 220.655-40.353 249.346-193.371 30.533-162.837-50.886-239.168-50.886-239.168z"/></symbol>
<symbol id="i-mobile" class="icon" viewBox="0 0 1024 1024" xmlns="http://www.w3.org/2000/svg"><path fill="currentColor" d="M736 0H288c-52.8 0-96 43.2-96 96v832c0 52.8 43.2 96 96 96h448c52.8 0 96-43.2 96-96V96c0-52.8-43.2-96-96-96zM384 48h256v32H384V48zm128 912a64 64 0 110-128 64 64 0 010 128zm256-192H256V128h512v640z"/></symbol>
<symbol id="i-qq" class="icon" viewBox="0 0 1024 1024" xmlns="http://www.w3.org/2000/svg"><path fill="currentColor" d="M824.8 613.2c-16-51.4-34.4-94.6-62.7-165.3C766.5 262.2 689.3 112 511.5 112 331.7 112 256.2 265.2 261 447.9c-28.4 70.8-46.7 113.7-62.7 165.3-34 109.5-23 154.8-14.6 155.8 18 2.2 70.1-82.4 70.1-82.4 0 49 25.2 112.9 79.8 159-26.4 8.1-85.7 29.9-71.6 53.8 11.4 19.3 196.2 12.3 249.5 6.3 53.3 6 238.1 13 249.5-6.3 14.1-23.8-45.3-45.7-71.6-53.8 54.6-46.2 79.8-110.1 79.8-159 0 0 52.1 84.6 70.1 82.4 8.5-1.1 19.5-46.4-14.5-155.8z"/></symbol>
<symbol id="i-star-fill" class="icon" viewBox="0 0 1024 1024" xmlns="http://www.w3.org/2000/svg"><path fill="currentColor" d="M908.1 353.1l-253.9-36.9L540.7 86.1c-3.1-6.3-8.2-11.4-14.5-14.5-15.8-7.8-35-1.3-42.9 14.5L369.8 316.2l-253.9 36.9c-7 1-13.4 4.3-18.3 9.3-12.3 12.7-12.1 32.9.6 45.3l183.7 179.1-43.4 252.9c-1.2 6.9-.1 14.1 3.2 20.3 8.2 15.6 27.6 21.7 43.2 13.4L512 754l227.1 119.4c6.2 3.3 13.4 4.4 20.3 3.2 17.4-3 29.1-19.5 26.1-36.9l-43.4-252.9 183.7-179.1c5-4.9 8.3-11.3 9.3-18.3 2.7-17.5-9.5-33.7-27-36.3z"/></symbol>
<symbol id="i-star" class="icon" viewBox="0 0 1024 1024" xmlns="http://www.w3.org/2000/svg"><path fill="currentColor" d="M908.1 353.1l-253.9-36.9L540.7 86.1c-3.1-6.3-8.2-11.4-14.5-14.5-15.8-7.8-35-1.3-42.9 14.5L369.8 316.2l-253.9 36.9c-7 1-13.4 4.3-18.3 9.3-12.3 12.7-12.1 32.9.6 45.3l183.7 179.1-43.4 252.9c-1.2 6.9-.1 14.1 3.2 20.3 8.2 15.6 27.6 21.7 43.2 13.4L512 754l227.1 119.4c6.2 3.3 13.4 4.4 20.3 3.2 17.4-3 29.1-19.5 26.1-36.9l-43.4-252.9 183.7-179.1c5-4.9 8.3-11.3 9.3-18.3 2.7-17.5-9.5-33.7-27-36.3zM664.8 561.6l36.1 210.3L512 672.7 323.1 772l36.1-210.3-152.8-149L417.6 382 512 190.7 606.4 382l211.2 30.7-152.8 148.9z"/></symbol>
<symbol id="i-wechat" class="icon" viewBox="0 0 1024 1024" xmlns="http://www.w3.org/2000/svg"><path fill="currentColor" d="M690.1 377.4c5.9 0 11.8.2 17.6.5-24.4-128.7-158.3-227.1-319.9-227.1C209 150.8 64 271.4 64 420.2c0 81.1 43.6 154.2 111.9 203.6 5.5 3.9 9.1 10.3 9.1 17.6 0 2.4-.5 4.6-1.1 6.9-5.5 20.3-14.2 52.8-14.6 54.3-.7 2.6-1.7 5.2-1.7 7.9 0 5.9 4.8 10.8 10.8 10.8 2.3 0 4.2-.9 6.2-2l70.9-40.9c5.3-3.1 11-5 17.2-5 3.2 0 6.4.5 9.5 1.4 33.1 9.5 68.8 14.8 105.7 14.8 6 0 11.9-.1 17.8-.4-7.1-21-10.9-43.1-10.9-66 0-135.8 132.2-245.8 295.3-245.8zm-194.3-86.5c23.8 0 43.2 19.3 43.2 43.1s-19.3 43.1-43.2 43.1c-23.8 0-43.2-19.3-43.2-43.1s19.4-43.1 43.2-43.1zm-215.9 86.2c-23.8 0-43.2-19.3-43.2-43.1s19.3-43.1 43.2-43.1 43.2 19.3 43.2 43.1-19.4 43.1-43.2 43.1zm586.8 415.6c56.9-41.2 93.2-102 93.2-169.7 0-124-120.8-224.5-269.9-224.5-149 0-269.9 100.5-269.9 224.5S540.9 847.5 690 847.5c30.8 0 60.6-4.4 88.1-12.3 2.6-.8 5.2-1.2 7.9-1.2 5.2 0 9.9 1.6 14.3 4.1l59.1 34c1.7 1 3.3 1.7 5.2 1.7 2.4 0 4.7-.9 6.4-2.6 1.7-1.7 2.6-4 2.6-6.4 0-2.2-.9-4.4-1.4-6.6-.3-1.2-7.6-28.3-12.2-45.3-.5-1.9-.9-3.8-.9-5.7.1-5.9 3.1-11.2 7.6-14.5zM600.2 587.2c-19.9 0-36-16.1-36-35.9 0-19.8 16.1-35.9 36-35.9s36 16.1 36 35.9c0 19.8-16.2 35.9-36 35.9zm179.9 0c-19.9 0-36-16.1-36-35.9 0-19.8 16.1-35.9 36-35.9s36 16.1 36 35.9c-.1 19.8-16.2 35.9-36 35.9z"/></symbol>
</svg>