<?xml version="1.0" encoding="UTF-8"?>
<svg version="1.1" xmlns="http://www.w3.org/2000/svg" xmlns:xlink="http://www.w3.org/1999/xlink">
<defs>

</defs>
<symbol id="i-blog" class="icon" viewBox="0 0 1024 1024" xmlns="http://www.w3.org/2000/svg" fill="currentColor"><path d="M777.088 748.544c-30.464-21.376-40.832-40.192-76.48-53.792 25.28-60.288 40.192-83.616 42.112-154.88h145.184C884 639.04 842.528 683.744 777.088 748.576zM136.096 539.872h167.2c1.952 71.296 16.864 94.624 42.112 154.88a438.784 438.784 0 00-98.496 53.792c-65.472-64.8-106.944-109.536-110.816-208.704zm103.04-259.904a393.44 393.44 0 0096.576 57.696c-19.456 53.792-30.464 90.72-31.744 152.96H136.096c3.232-90.72 46.656-147.776 103.04-210.624zm309.152 209.984V372c47.296-1.28 71.296-10.368 114.08-25.28 18.144 51.2 28.512 84.896 30.464 143.232H548.32zM652.64 685.056c-40.192-12.96-60.288-20.096-104.352-21.376V539.904H692.8c-1.952 68.064-16.192 88.128-40.192 145.184zm36.928 57.664c31.744 12.32 39.52 28.512 66.752 47.296a369.6 369.6 0 01-182.112 84.896c36.928-37.6 90.72-82.304 115.36-132.224zM526.272 880.128l22.048-165.92c40.192 1.312 56.384 7.776 92.672 18.784a457.44 457.44 0 01-113.408 147.104h-1.312zm-75.84-5.184c-67.392-11.008-130.272-40.832-182.752-84.896a431.52 431.52 0 0188.8-47.296 482.944 482.944 0 0093.984 132.224zm47.296-335.072v123.776c-44.064 1.312-64.16 8.416-104.352 21.376-23.968-57.696-38.24-77.12-40.192-145.184h144.512zM383.68 346.72c42.784 14.912 66.752 23.328 114.08 25.28v117.952H353.248c1.952-58.336 12.32-92.032 30.464-143.232zm-37.6-57.024a366.4 366.4 0 01-88.128-51.84c53.792-51.84 115.36-91.392 192.48-104.352A479.136 479.136 0 00346.08 289.696zM497.728 128.32v193.792c-44.064-1.28-64.16-9.088-103.68-22.688 29.152-68.704 49.888-127.04 102.4-171.104h1.28zm75.84 4.544A398.88 398.88 0 01780.32 237.216c-29.152 22.048-46.016 37.6-80.352 51.84-25.28-59.616-82.944-112.768-126.368-156.192zm-46.016-4.544A447.584 447.584 0 01652 299.424c-39.52 13.6-59.616 21.376-103.712 22.688L526.24 128.32h1.312zm-31.104 751.168c-46.656-38.88-62.88-88.8-91.392-147.104 36.288-11.68 53.152-17.504 93.312-18.784v165.92h-1.952zm391.456-389.536H742.72c-1.312-61.568-12.32-98.496-31.744-152.32 37.6-15.552 57.024-33.056 88.8-57.696 56.384 62.88 84.896 119.904 88.128 209.984zM512 62.208c-244.32 0-442.016 197.664-442.016 442.016S267.648 946.24 512 946.24s442.016-197.664 442.016-442.016S756.352 62.208 512 62.208z"/></symbol>
<symbol id="i-github" class="icon" viewBox="0 0 1024 1024" xmlns="http://www.w3.org/2000/svg" fill="currentColor"><path d="M511.6 76.3C264.3 76.2 64 276.4 64 523.5 64 718.9 189.3 885 363.8 946c23.5 5.9 19.9-10.8 19.9-22.2v-77.5c-135.7 15.9-141.2-73.9-150.3-88.9C215 726 171.5 718 184.5 703c30.9-15.9 62.4 4 98.9 57.9 26.4 39.1 77.9 32.5 104 26 5.7-23.5 17.9-44.5 34.7-60.8-140.6-25.2-199.2-111-199.2-213 0-49.5 16.3-95 48.3-131.7-20.4-60.5 1.9-112.3 4.9-120 58.1-5.2 118.5 41.6 123.2 45.3 33-8.9 70.7-13.6 112.9-13.6 42.4 0 80.2 4.9 113.5 13.9 11.3-8.6 67.3-48.8 121.3-43.9 2.9 7.7 24.7 58.3 5.5 118 32.4 36.8 48.9 82.7 48.9 132.3 0 102.2-59 188.1-200 212.9 23.5 23.2 38.1 55.4 38.1 91v112.5c.8 9 0 17.9 15 17.9 177.1-59.7 304.6-227 304.6-424.1 0-247.2-200.4-447.3-447.5-447.3z"/></symbol>
<symbol id="i-mobile" class="icon" viewBox="0 0 1024 1024" xmlns="http://www.w3.org/2000/svg"><path fill="currentColor" d="M736 0H288c-52.8 0-96 43.2-96 96v832c0 52.8 43.2 96 96 96h448c52.8 0 96-43.2 96-96V96c0-52.8-43.2-96-96-96zM384 48h256v32H384V48zm128 912a64 64 0 110-128 64 64 0 010 128zm256-192H256V128h512v640z"/></symbol>
<symbol id="i-qq" class="icon" viewBox="0 0 1024 1024" xmlns="http://www.w3.org/2000/svg"><path fill="currentColor" d="M824.8 613.2c-16-51.4-34.4-94.6-62.7-165.3C766.5 262.2 689.3 112 511.5 112 331.7 112 256.2 265.2 261 447.9c-28.4 70.8-46.7 113.7-62.7 165.3-34 109.5-23 154.8-14.6 155.8 18 2.2 70.1-82.4 70.1-82.4 0 49 25.2 112.9 79.8 159-26.4 8.1-85.7 29.9-71.6 53.8 11.4 19.3 196.2 12.3 249.5 6.3 53.3 6 238.1 13 249.5-6.3 14.1-23.8-45.3-45.7-71.6-53.8 54.6-46.2 79.8-110.1 79.8-159 0 0 52.1 84.6 70.1 82.4 8.5-1.1 19.5-46.4-14.5-155.8z"/></symbol>
<symbol id="i-star-fill" class="icon" viewBox="0 0 1024 1024" xmlns="http://www.w3.org/2000/svg"><path fill="currentColor" d="M908.1 353.1l-253.9-36.9L540.7 86.1c-3.1-6.3-8.2-11.4-14.5-14.5-15.8-7.8-35-1.3-42.9 14.5L369.8 316.2l-253.9 36.9c-7 1-13.4 4.3-18.3 9.3-12.3 12.7-12.1 32.9.6 45.3l183.7 179.1-43.4 252.9c-1.2 6.9-.1 14.1 3.2 20.3 8.2 15.6 27.6 21.7 43.2 13.4L512 754l227.1 119.4c6.2 3.3 13.4 4.4 20.3 3.2 17.4-3 29.1-19.5 26.1-36.9l-43.4-252.9 183.7-179.1c5-4.9 8.3-11.3 9.3-18.3 2.7-17.5-9.5-33.7-27-36.3z"/></symbol>
<symbol id="i-star" class="icon" viewBox="0 0 1024 1024" xmlns="http://www.w3.org/2000/svg"><path fill="currentColor" d="M908.1 353.1l-253.9-36.9L540.7 86.1c-3.1-6.3-8.2-11.4-14.5-14.5-15.8-7.8-35-1.3-42.9 14.5L369.8 316.2l-253.9 36.9c-7 1-13.4 4.3-18.3 9.3-12.3 12.7-12.1 32.9.6 45.3l183.7 179.1-43.4 252.9c-1.2 6.9-.1 14.1 3.2 20.3 8.2 15.6 27.6 21.7 43.2 13.4L512 754l227.1 119.4c6.2 3.3 13.4 4.4 20.3 3.2 17.4-3 29.1-19.5 26.1-36.9l-43.4-252.9 183.7-179.1c5-4.9 8.3-11.3 9.3-18.3 2.7-17.5-9.5-33.7-27-36.3zM664.8 561.6l36.1 210.3L512 672.7 323.1 772l36.1-210.3-152.8-149L417.6 382 512 190.7 606.4 382l211.2 30.7-152.8 148.9z"/></symbol>
<symbol id="i-wechat" class="icon" viewBox="0 0 1024 1024" xmlns="http://www.w3.org/2000/svg"><path fill="currentColor" d="M690.1 377.4c5.9 0 11.8.2 17.6.5-24.4-128.7-158.3-227.1-319.9-227.1C209 150.8 64 271.4 64 420.2c0 81.1 43.6 154.2 111.9 203.6 5.5 3.9 9.1 10.3 9.1 17.6 0 2.4-.5 4.6-1.1 6.9-5.5 20.3-14.2 52.8-14.6 54.3-.7 2.6-1.7 5.2-1.7 7.9 0 5.9 4.8 10.8 10.8 10.8 2.3 0 4.2-.9 6.2-2l70.9-40.9c5.3-3.1 11-5 17.2-5 3.2 0 6.4.5 9.5 1.4 33.1 9.5 68.8 14.8 105.7 14.8 6 0 11.9-.1 17.8-.4-7.1-21-10.9-43.1-10.9-66 0-135.8 132.2-245.8 295.3-245.8zm-194.3-86.5c23.8 0 43.2 19.3 43.2 43.1s-19.3 43.1-43.2 43.1c-23.8 0-43.2-19.3-43.2-43.1s19.4-43.1 43.2-43.1zm-215.9 86.2c-23.8 0-43.2-19.3-43.2-43.1s19.3-43.1 43.2-43.1 43.2 19.3 43.2 43.1-19.4 43.1-43.2 43.1zm586.8 415.6c56.9-41.2 93.2-102 93.2-169.7 0-124-120.8-224.5-269.9-224.5-149 0-269.9 100.5-269.9 224.5S540.9 847.5 690 847.5c30.8 0 60.6-4.4 88.1-12.3 2.6-.8 5.2-1.2 7.9-1.2 5.2 0 9.9 1.6 14.3 4.1l59.1 34c1.7 1 3.3 1.7 5.2 1.7 2.4 0 4.7-.9 6.4-2.6 1.7-1.7 2.6-4 2.6-6.4 0-2.2-.9-4.4-1.4-6.6-.3-1.2-7.6-28.3-12.2-45.3-.5-1.9-.9-3.8-.9-5.7.1-5.9 3.1-11.2 7.6-14.5zM600.2 587.2c-19.9 0-36-16.1-36-35.9 0-19.8 16.1-35.9 36-35.9s36 16.1 36 35.9c0 19.8-16.2 35.9-36 35.9zm179.9 0c-19.9 0-36-16.1-36-35.9 0-19.8 16.1-35.9 36-35.9s36 16.1 36 35.9c-.1 19.8-16.2 35.9-36 35.9z"/></symbol>
</svg>